<svg width="532" height="642" viewBox="0 0 532 642" fill="none" xmlns="http://www.w3.org/2000/svg">
<path d="M214.668 0C285.631 0 341.689 16.029 382.843 48.0342C421.605 78.3411 441 117.937 441 166.848C441 200.047 426.069 230.327 396.26 257.688C359.277 291.498 309.197 308.377 245.992 308.377H207.495C205.503 305.644 203.51 303.016 201.518 300.521C250.801 300.389 285.285 287.809 304.919 262.837C321.683 241.235 330.079 209.097 330.079 159.443C330.079 109.79 318.974 72.1318 296.816 46.416C274.685 20.7003 240.546 7.85536 195.806 6.36914H181.299C174.976 6.36915 168.652 6.68814 162.436 7.80273C147.77 10.4566 134.911 16.0554 126.224 24.8926C126.144 24.9722 126.038 25.0786 125.958 25.1582C125.852 25.2909 125.72 25.3976 125.613 25.5303C115.252 36.3845 110.018 51.1396 110.018 66.1338V275.867C76.8874 296.036 63.9758 345.531 95.751 376.767C100.267 381.251 105.05 385.418 110.018 389.346V623.123H0V0.132812C0 0.132812 106.67 0.0530769 214.668 0Z" fill="#231F20"/>
<path d="M110.43 286.323C120.805 278.574 133.648 274.302 147.26 275.921C163.977 277.46 177.244 286.377 189.636 300.521C191.812 302.99 193.935 305.617 196.058 308.377C240.159 366.019 278.263 487.352 431.555 569.144C448.139 576.229 465.917 581.908 484.969 581.723C489.665 581.617 494.442 581.033 499.086 579.918L499.216 579.882C506.363 577.93 513.452 575.994 519.598 580.979C524.268 584.748 528.593 591.356 528.434 597.619C527.478 601.785 526.125 606.112 523.949 609.854C510.735 631.827 482.289 637.692 458.381 640.426C388.807 646.078 318.675 629.838 253.559 606.112C214.022 592.578 176.794 572.036 145.456 544.356C135.479 535.28 124.254 526.257 120.938 512.696C113.455 486.981 136.01 457.682 162.757 459.752C191.122 461.583 205.61 490.298 224.874 507.973C244.536 528.115 265.924 546.772 289.381 562.695C298.005 567.791 327.246 590.135 334.941 578.087C336.188 575.938 336.161 574.424 336.108 572.328C335.259 565.773 331.943 560.015 328.918 554.521C288.585 486.742 218.426 445.236 151.24 408.321C139.485 400.944 127.916 393.3 117.063 384.834C114.835 383.083 112.605 381.305 110.43 379.447C102.416 372.627 95.0392 364.93 90.6875 355.297C78.9592 330.802 89.8919 301.689 110.43 286.323Z" fill="#9669A4"/>
<path d="M386.684 452.269C392.946 452.269 399.792 454.79 406.611 459.832C410.936 463.123 415.102 467.528 419.162 471.747C424.92 477.798 430.864 484.035 437.577 487.645C450.73 495.256 460.306 494.121 476.182 492.239L476.212 492.235C498.687 489.582 517.208 494.756 525.806 507.123C532.943 517.446 533.209 531.937 526.496 544.94C521.295 555.025 512.857 562.881 502.296 567.896C494.097 571.771 484.623 573.92 474.381 574.026C445.617 572.54 411.626 554.733 386.843 529.097C382.624 524.745 378.67 520.127 375.062 515.351C358.265 493.111 360.573 469.625 371.267 458.797C375.592 454.445 380.872 452.269 386.684 452.269Z" fill="#895881"/>
</svg>
